<svg xmlns="http://www.w3.org/2000/svg" xmlns:xlink="http://www.w3.org/1999/xlink" aria-hidden="true" role="img" class="iconify iconify--logos" width="35.93" height="32" preserveAspectRatio="xMidYMid meet" viewBox="0 0 256 228"><path fill="#00D8FF" d="M210.483 73.824a171.49 171.49 0 0 0-8.24-2.597c.465-1.9.893-3.777 1.273-5.621c6.238-30.281 2.16-54.676-11.769-63.708c-13.355-8.7-35.196-.329-57.254 20.526a171.23 171.23 0 0 0-6.375 6.137a155.866 155.866 0 0 0-3.951-3.827C100.759 3.829 76.587-3.894 62.28 5.18C48.512 13.887 44.58 37.1 50.316 66.588a170.974 170.974 0 0 0 2.507 10.077a145.785 145.785 0 0 0-8.773-2.266C18.422 70.402 4.418 75.785 1.635 84.756c-3.191 10.312 5.331 24.269 21.618 37.669a145.3 145.3 0 0 0-4.388 6.889c-15.84-11.877-32.966-18.364-41.53-12.76C-25.068 123.62-21.49 142.688-4.98 161.463a146.325 146.325 0 0 0 3.905 7.797c-11.939 8.108-19.375 17.24-18.09 25.167c1.832 11.18 18.894 17.412 43.254 19.966a145.06 145.06 0 0 0 11.653 9.423c-1.357 2.884-2.645 5.8-3.855 8.737c-8.254 20.221-11.17 38.667-6.628 50.883c5.374 14.435 21.858 20.972 42.383 19.283c22.538-1.844 49.27-11.187 75.402-26.872c28.346-16.987 51.845-37.857 65.637-55.824c15.235-19.71 19.133-37.402 13.758-51.838c-4.542-12.216-15.05-22.096-28.464-28.698a145.89 145.89 0 0 0 7.13-9.914c18.287-13.4 29.909-27.874 26.717-38.187c-2.784-8.971-15.824-14.174-33.718-15.786Zm5.037 21.478c1.51 4.88-4.74 11.726-14.674 18.287a156.885 156.885 0 0 1-7.978 9.525c-1.422 1.703-2.876 3.377-4.36 5.02c-8.654-2.455-17.782-4.367-27.267-5.693c9.423-11.654 17.847-24.465 24.958-38.06c12.413 3.186 23.923 7.232 29.321 11.921Zm-30.73 59.89c5.546 12.554 8.694 25.52 9.283 38.308c13.105-16.948 19.894-33.145 17.542-46.24c-1.598-8.965-8.91-16.204-19.688-21.451a309.743 309.743 0 0 0-7.137 29.383Zm-153.383 89.92c-16.687 1.364-29.5-2.422-33.128-9.36c-4.057-7.714 2.445-19.898 16.667-32.534a309.836 309.836 0 0 0 9.567 8.814a170.49 170.49 0 0 0 6.894 26.08ZM25.507 146.38c-12.75-1.956-22.473-5.415-25.968-10.442c-3.894-5.606-.16-14.298 9.566-23.345c3.37-3.127 7.105-6.127 11.144-8.98c7.953 16.852 18.298 32.556 30.465 46.526c-8.4 1.446-16.577 2.53-25.207-3.759Zm15.786-74.596c-10.778-5.247-18.09-12.486-19.688-21.451c-2.352-13.095 4.437-29.292 17.542-46.24c.59 12.788 3.737 25.754 9.283 38.308a309.743 309.743 0 0 0-7.137 29.383Zm17.582 17.81a329.075 329.075 0 0 1-11.144-8.98c-9.727-9.047-13.46-17.74-9.566-23.345c3.495-5.027 13.218-8.486 25.968-10.442c8.63 6.289 16.807 7.373 25.207 8.819c-12.167 13.97-22.512 29.674-30.465 46.526Zm30.393 9.89c-13.223-12.636-20.725-24.82-16.667-32.534c3.628-6.938 16.441-10.724 33.128-9.36a170.49 170.49 0 0 0-6.894 26.08a309.836 309.836 0 0 0-9.567 8.814Zm23.681 7.834a145.785 145.785 0 0 1-2.507-10.077c-5.737-29.488-1.804-52.7 11.963-61.408c13.308-8.865 35.029-.494 57.087 20.361c1.292 1.257 2.57 2.533 3.83 3.827a171.23 171.23 0 0 1 6.375-6.137c22.058-20.855 43.899-29.226 57.254-20.526c13.928 9.032 18.007 33.427 11.769 63.708a171.49 171.49 0 0 1-1.273 5.621c-2.533.798-5.07 1.613-7.607 2.454a309.45 309.45 0 0 0-7.978-9.525a156.885 156.885 0 0 0-7.978-9.525c-5.398-4.689-16.908-8.735-29.321-11.921c-7.111 13.595-15.535 26.406-24.958 38.06c-9.485 1.326-18.613 3.238-27.267 5.693c-1.484-1.643-2.938-3.317-4.36-5.02a156.885 156.885 0 0 0-7.978-9.525a145.06 145.06 0 0 0-11.653-9.423c-24.36-2.554-41.422-8.786-43.254-19.966c-1.285-7.927 6.151-17.059 18.09-25.167a146.325 146.325 0 0 1-3.905-7.797c-16.51-18.775-20.088-37.843-8.76-49.014c11.764-11.507 32.698-7.732 52.854 8.76c1.361 1.294 2.697 2.613 4.007 3.951a155.866 155.866 0 0 1 3.951 3.827a171.23 171.23 0 0 0 6.375-6.137c21.434-20.284 41.839-28.17 54.202-20.526c12.747 7.813 17.578 30.44 11.87 58.69a170.974 170.974 0 0 1-2.507 10.077c6.329 1.996 12.394 4.218 18.142 6.64c-1.21-2.937-2.498-5.853-3.855-8.737a145.06 145.06 0 0 1-11.653-9.423c-24.36-2.554-41.422-8.786-43.254-19.966c-1.285-7.927 6.151-17.059 18.09-25.167a146.325 146.325 0 0 1 3.905-7.797c16.51-18.775 20.088-37.843 8.76-49.014c-11.764-11.507-32.698-7.732-52.854 8.76a309.45 309.45 0 0 0-7.978 9.525c-1.422 1.703-2.876 3.377-4.36 5.02c-8.654-2.455-17.782-4.367-27.267-5.693c9.423-11.654 17.847-24.465 24.958-38.06c12.413 3.186 23.923 7.232 29.321 11.921c7.111 13.595 15.535 26.406 24.958 38.06c9.485-1.326 18.613-3.238 27.267-5.693c1.484 1.643 2.938 3.317 4.36 5.02a156.885 156.885 0 0 1 7.978 9.525c10.778 5.247 18.09 12.486 19.688 21.451c2.352 13.095-4.437 29.292-17.542 46.24c-.59-12.788-3.737-25.754-9.283-38.308a309.743 309.743 0 0 1 7.137-29.383Zm100.822 50.305c4.542 12.216 1.644 29.908-13.59 49.619c-13.792 18.037-37.29 38.836-65.637 55.824c-26.132 15.685-52.864 25.028-75.402 26.872c-20.525 1.689-37.009-4.848-42.383-19.283c-4.542-12.216-1.626-30.662 6.628-50.883a170.49 170.49 0 0 1 6.894-26.08c13.223 12.636 20.725 24.82 16.667 32.534c-3.628 6.938-16.441 10.724-33.128 9.36c8.63-6.289 16.807-7.373 25.207-8.819c12.167-13.97 22.512-29.674 30.465-46.526c8.4-1.446 16.577-2.53 25.207 3.759c12.75 1.956 22.473 5.415 25.968 10.442c3.894 5.606.16 14.298-9.566 23.345a329.075 329.075 0 0 1-11.144 8.98c7.953-16.852 18.298-32.556 30.465-46.526c8.4 1.446 16.577 2.53 25.207-3.759Zm-139.623 22.438c-3.495-5.027-13.218-8.486-25.968-10.442c-8.63-6.289-16.807-7.373-25.207-8.819c12.167-13.97 22.512-29.674 30.465-46.526c8.4-1.446 16.577-2.53 25.207 3.759c12.75 1.956 22.473 5.415 25.968 10.442c3.894 5.606.16 14.298-9.566 23.345a329.075 329.075 0 0 1-11.144 8.98c-7.953 16.852-18.298 32.556-30.465 46.526c-8.4-1.446-16.577-2.53-25.207 8.819Zm114.85-38.535c-9.485 1.326-18.613 3.238-27.267 5.693c-1.484-1.643-2.938-3.317-4.36-5.02a156.885 156.885 0 0 1-7.978-9.525a309.45 309.45 0 0 1-7.978-9.525c5.398-4.689 16.908-8.735 29.321-11.921c7.111-13.595 15.535-26.406 24.958-38.06c9.485-1.326 18.613-3.238 27.267-5.693c1.484 1.643 2.938 3.317 4.36 5.02a156.885 156.885 0 0 1 7.978 9.525a309.45 309.45 0 0 1 7.978 9.525c-5.398 4.689-16.908 8.735-29.321 11.921c-7.111 13.595-15.535 26.406-24.958 38.06Zm30.73-59.89c9.485-1.326 18.613-3.238 27.267-5.693c1.484 1.643 2.938 3.317 4.36 5.02a156.885 156.885 0 0 1 7.978 9.525c10.778 5.247 18.09 12.486 19.688 21.451c2.352 13.095-4.437 29.292-17.542 46.24c-.59-12.788-3.737-25.754-9.283-38.308a309.743 309.743 0 0 0-7.137-29.383c-5.546-12.554-8.694-25.52-9.283-38.308c-13.105 16.948-19.894 33.145-17.542 46.24c1.598 8.965 8.91 16.204 19.688 21.451a309.45 309.45 0 0 0 7.978 9.525a156.885 156.885 0 0 1 7.978 9.525c1.422 1.703 2.876 3.377 4.36 5.02c8.654 2.455 17.782 4.367 27.267 5.693c-9.423 11.654-17.847 24.465-24.958 38.06c-12.413-3.186-23.923-7.232-29.321-11.921c-7.111-13.595-15.535-26.406-24.958-38.06Zm-30.393-9.89c9.485-1.326 18.613-3.238 27.267-5.693c1.484 1.643 2.938 3.317 4.36 5.02a156.885 156.885 0 0 1 7.978 9.525c10.778 5.247 18.09 12.486 19.688 21.451c2.352 13.095-4.437 29.292-17.542 46.24c-.59-12.788-3.737-25.754-9.283-38.308a309.743 309.743 0 0 0-7.137-29.383c-5.546-12.554-8.694-25.52-9.283-38.308c-13.105 16.948-19.894 33.145-17.542 46.24c1.598 8.965 8.91 16.204 19.688 21.451a309.45 309.45 0 0 0 7.978 9.525a156.885 156.885 0 0 1 7.978 9.525c1.422 1.703 2.876 3.377 4.36 5.02c8.654 2.455 17.782 4.367 27.267 5.693c-9.423 11.654-17.847 24.465-24.958 38.06c-12.413-3.186-23.923-7.232-29.321-11.921c-7.111-13.595-15.535-26.406-24.958-38.06Zm139.623-22.438c3.495 5.027 13.218 8.486 25.968 10.442c8.63 6.289 16.807 7.373 25.207 8.819c-12.167 13.97-22.512 29.674-30.465 46.526c-8.4 1.446-16.577 2.53-25.207-3.759c-12.75-1.956-22.473-5.415-25.968-10.442c-3.894-5.606-.16-14.298 9.566-23.345a329.075 329.075 0 0 1 11.144-8.98c7.953-16.852 18.298-32.556 30.465-46.526c8.4-1.446 16.577-2.53 25.207 3.759Z"></path></svg>

